<svg version="1.1" id="Layer_1" xmlns="http://www.w3.org/2000/svg" xmlns:xlink="http://www.w3.org/1999/xlink" x="0px" y="0px"
	 width="100%" viewBox="0 0 876 1280" enable-background="new 0 0 876 1280" xml:space="preserve">
<path fill="#FEFFFF" opacity="1.000000" stroke="none" 
	d="
M1.000000,517.000000 
	C1.000000,344.686584 1.000000,172.873154 1.000000,1.059732 
	C1.146737,1.039821 1.293473,1.002457 1.440210,1.002456 
	C293.239716,0.999991 585.039246,1.000000 876.919373,1.000000 
	C876.919373,427.563477 876.919373,854.126953 876.919373,1280.845215 
	C585.000061,1280.845215 293.000031,1280.845215 1.000000,1280.845215 
	C1.000000,1026.440796 1.000000,771.970398 1.000000,517.000000 
M640.544189,108.973076 
	C598.405945,78.515846 552.437439,55.735428 502.919067,39.956131 
	C471.348724,29.896097 438.995270,23.786684 405.997894,22.194847 
	C377.629669,20.826328 349.229309,21.526005 320.972473,25.781181 
	C297.203430,29.360542 273.923828,34.705162 250.866974,41.408291 
	C243.363220,43.589787 240.079346,46.962875 238.501053,55.112309 
	C228.794464,105.231453 218.194870,155.177246 207.968246,205.196228 
	C198.864700,249.722183 189.888748,294.274231 180.801086,338.803467 
	C173.895172,372.642303 166.864395,406.455688 159.957748,440.294373 
	C151.533249,481.569794 143.226440,522.869263 134.783676,564.140930 
	C126.571587,604.285034 118.241821,644.405090 109.982620,684.539551 
	C102.387024,721.449463 94.801903,758.361572 87.247437,795.279907 
	C85.738770,802.652710 84.389488,810.058105 82.891846,817.837402 
	C84.826469,817.356995 86.124557,817.135010 87.354919,816.714661 
	C150.885925,795.010010 214.418884,773.310913 277.895660,751.448669 
	C279.601746,750.861023 281.515717,748.690918 281.948883,746.920288 
	C288.777100,719.007935 295.406036,691.046570 302.025574,663.083374 
	C318.047180,595.402710 334.043579,527.716064 350.042480,460.029968 
	C355.056976,438.815308 360.059937,417.597870 365.040619,396.375275 
	C366.517609,390.081909 369.671997,386.457733 374.215546,386.015625 
	C379.610565,385.490662 383.266998,388.032623 385.629913,394.258209 
	C391.734924,410.343079 397.771912,426.453857 403.811890,442.563324 
	C425.535645,500.503632 447.257446,558.444702 468.964417,616.391296 
	C486.721619,663.793945 504.450439,711.207214 522.203247,758.611572 
	C536.475037,796.720947 550.756042,834.826782 565.048889,872.928162 
	C571.558716,890.281921 578.126465,907.613953 584.615662,924.975342 
	C585.535767,927.436829 586.234497,929.324829 589.740784,928.850281 
	C600.738708,927.362061 611.778992,926.150635 622.826111,925.069153 
	C641.307068,923.259827 659.812744,921.703247 678.295715,919.913330 
	C701.558228,917.660767 724.811707,915.312439 748.061768,912.933777 
	C754.053040,912.320740 760.016846,911.439697 766.400879,910.630127 
	C765.600464,908.510132 765.054443,906.976624 764.447144,905.467773 
	C741.648804,848.824463 718.839050,792.185791 696.043030,735.541504 
	C667.990967,665.837097 639.953369,596.126953 611.902466,526.422058 
	C590.584778,473.448883 569.220764,420.494202 548.049500,367.462555 
	C547.110352,365.110138 547.235535,361.872986 548.003540,359.401794 
	C549.304199,355.216614 552.905090,352.984894 557.216675,353.117584 
	C562.246521,353.272339 565.191406,356.600098 566.995544,361.100525 
	C577.834961,388.138519 588.688354,415.170959 599.562317,442.195038 
	C622.047363,498.074615 644.542297,553.950195 667.051575,609.820007 
	C669.533569,615.980469 672.135437,622.092590 674.929321,628.823486 
	C677.164307,626.365479 678.810303,624.719238 680.270447,622.921936 
	C688.232117,613.121765 696.112122,603.255127 704.086792,593.465637 
	C726.108826,566.431580 747.148743,538.719299 765.009033,508.670563 
	C787.886414,470.180756 800.188538,428.730255 799.875793,383.920715 
	C799.741577,364.699280 797.324646,345.605286 793.189331,326.710968 
	C780.442078,268.469330 754.896301,216.762268 714.832886,172.522919 
	C692.979004,148.391144 667.966370,127.785210 640.544189,108.973076 
M783.880859,1007.500854 
	C783.880859,1001.372925 783.880859,995.244995 783.880859,988.786987 
	C778.335999,988.786987 773.285095,988.786987 767.627441,988.786987 
	C767.627441,1002.613586 767.627441,1016.129883 767.627441,1030.488159 
	C766.053650,1028.988525 765.134277,1028.280640 764.419556,1027.405762 
	C755.488220,1016.474365 746.592285,1005.513977 737.675232,994.570801 
	C732.289856,987.961731 728.218567,986.778931 719.715698,989.306641 
	C719.715698,1012.405579 719.715698,1035.504517 719.715698,1058.790405 
	C725.027283,1058.790405 730.069580,1058.790405 735.705017,1058.790405 
	C735.705017,1045.095093 735.705017,1031.733154 735.705017,1017.886047 
	C736.777893,1018.463440 737.290466,1018.582825 737.557373,1018.905518 
	C746.869995,1030.163696 756.740845,1041.024048 765.236633,1052.870117 
	C770.432495,1060.114990 776.447144,1059.540649 783.880737,1058.645386 
	C783.880737,1041.740112 783.880737,1025.120361 783.880859,1007.500854 
M394.472839,991.060242 
	C394.472839,1013.631836 394.472839,1036.203369 394.472839,1058.550049 
	C407.767090,1058.550049 420.402100,1058.993652 432.993927,1058.444824 
	C451.314178,1057.646484 465.236725,1043.433105 465.357910,1024.577271 
	C465.473969,1006.518494 455.256409,992.195374 435.328491,989.647766 
	C422.709290,988.034485 409.792023,988.723450 397.006256,988.509338 
	C396.176971,988.495483 395.329041,989.593628 394.472839,991.060242 
M66.276428,1050.186890 
	C63.257389,1045.723267 60.238346,1041.259766 57.466709,1037.161987 
	C60.906448,1034.112061 64.263153,1031.999390 66.471741,1029.032227 
	C77.780441,1013.839722 68.635086,992.006775 49.800365,989.588501 
	C41.447231,988.516052 32.922897,988.730225 24.472752,988.478699 
	C19.890909,988.342346 15.301669,988.454468 10.770061,988.454468 
	C10.770061,1012.393433 10.770061,1035.589600 10.770061,1058.895386 
	C16.105083,1058.895386 21.044317,1058.895386 26.636097,1058.895386 
	C26.636097,1052.445801 26.636097,1046.228638 26.636097,1040.134521 
	C35.871685,1038.439697 43.757492,1038.415039 47.653408,1048.395996 
	C48.297878,1050.047119 49.696815,1051.400269 50.727612,1052.904541 
	C55.113045,1059.304077 63.620167,1061.407715 71.416023,1057.803345 
	C69.838989,1055.427124 68.288139,1053.090210 66.276428,1050.186890 
M310.846252,1059.131470 
	C315.410919,1059.131470 319.975586,1059.131470 325.699463,1059.131470 
	C314.935150,1045.416504 304.953461,1032.698853 295.001495,1020.018982 
	C304.903046,1009.293030 314.351013,999.058472 324.055176,988.546387 
	C319.046173,988.546387 314.425568,988.281982 309.859467,988.665771 
	C307.796387,988.839233 305.376709,989.829468 303.920013,991.263123 
	C298.231567,996.861511 292.907013,1002.827454 287.361176,1008.573669 
	C283.520966,1012.552673 279.539917,1016.395691 275.621826,1020.299500 
	C275.245453,1020.088928 274.869110,1019.878357 274.492737,1019.667786 
	C274.492737,1009.433411 274.492737,999.198975 274.492737,988.813171 
	C268.899780,988.813171 263.856842,988.813171 258.869263,988.813171 
	C258.869263,1012.399658 258.869263,1035.609009 258.869263,1058.828857 
	C264.215942,1058.828857 269.141083,1058.828857 274.649200,1058.828857 
	C274.153381,1048.507324 272.574890,1037.827026 285.034485,1032.443726 
	C290.931274,1039.689819 296.966431,1047.369995 303.339996,1054.758301 
	C305.001617,1056.684448 307.717865,1057.700928 310.846252,1059.131470 
M504.510864,1029.562012 
	C511.761169,1029.562012 519.011475,1029.562012 526.227539,1029.562012 
	C526.227539,1025.053589 526.227539,1021.317688 526.227539,1017.129150 
	C515.313416,1017.129150 504.725616,1017.129150 493.939453,1017.129150 
	C493.939453,1011.797546 493.939453,1006.930725 493.939453,1001.411865 
	C506.342255,1001.411865 518.373779,1001.411865 530.311523,1001.411865 
	C530.311523,996.807373 530.311523,992.863220 530.311523,988.681030 
	C512.683228,988.681030 495.297913,988.681030 477.699219,988.681030 
	C477.699219,1012.152039 477.699219,1035.373779 477.699219,1058.724854 
	C495.799377,1058.724854 513.643494,1058.724854 531.570312,1058.724854 
	C531.570312,1054.412964 531.570312,1050.514038 531.570312,1046.010864 
	C518.846191,1046.010864 506.453064,1046.010864 493.881104,1046.010864 
	C493.881104,1040.331909 493.881104,1035.268555 493.881104,1029.561523 
	C497.284058,1029.561523 500.400085,1029.561523 504.510864,1029.562012 
M689.449951,1041.144409 
	C689.011780,1045.996948 684.768494,1045.273071 681.867554,1045.944946 
	C669.723083,1048.756958 657.021118,1041.219116 654.648254,1030.081909 
	C651.731140,1016.390137 658.147217,1004.779175 670.895020,1002.049255 
	C680.073914,1000.083557 688.758362,1001.720581 695.092712,1008.960205 
	C698.482056,1005.504150 701.682373,1002.240967 704.977661,998.880859 
	C704.486450,998.329041 703.903259,997.502258 703.158936,996.863281 
	C692.189087,987.447815 679.392395,985.497009 665.808655,988.616028 
	C652.188660,991.743286 642.601257,999.940552 638.845093,1013.726440 
	C635.161560,1027.245728 637.876770,1039.803223 647.916321,1049.587280 
	C663.100464,1064.385132 687.049316,1062.690186 702.316956,1052.693848 
	C703.294678,1052.053711 704.402649,1050.696045 704.422119,1049.652954 
	C704.588562,1040.730469 704.517456,1031.803467 704.517456,1022.845825 
	C699.152649,1022.845825 694.437195,1022.845825 689.459717,1022.845825 
	C689.459717,1028.914185 689.459717,1034.561157 689.449951,1041.144409 
M94.248734,1052.949341 
	C94.734772,1051.718994 95.386780,1050.526367 95.677193,1049.251465 
	C96.756332,1044.513794 99.637840,1043.053711 104.360779,1043.513184 
	C108.815643,1043.946533 113.345268,1043.612671 117.842003,1043.614014 
	C130.439316,1043.618042 130.405548,1043.632202 135.426239,1055.326172 
	C136.023361,1056.717041 137.155579,1058.845825 138.172028,1058.924683 
	C143.058243,1059.302979 147.989868,1059.094604 153.473251,1059.094604 
	C152.852142,1057.209351 152.592590,1056.113037 152.142593,1055.101440 
	C143.861313,1036.485718 135.633331,1017.845520 127.229790,999.284851 
	C122.080025,987.910645 121.949425,987.856140 109.511414,988.579834 
	C107.925674,988.672119 105.738632,990.303284 105.035881,991.791077 
	C100.085464,1002.271179 95.417206,1012.885620 90.724358,1023.486145 
	C85.585838,1035.093506 80.517776,1046.732056 75.081757,1059.125854 
	C79.280960,1059.125854 82.757675,1058.822632 86.158569,1059.200928 
	C90.634468,1059.698975 93.077530,1057.952637 94.248734,1052.949341 
M798.367188,1054.246948 
	C812.272583,1060.746216 826.515259,1063.142700 841.115967,1056.880859 
	C850.062134,1053.044067 854.194397,1045.869507 853.528625,1036.228394 
	C852.925232,1027.490112 847.095764,1023.063660 839.527893,1020.625427 
	C833.240417,1018.599670 826.739319,1017.246094 820.398743,1015.372070 
	C816.867004,1014.328125 812.915161,1012.917542 813.006836,1008.449463 
	C813.104187,1003.705811 816.920105,1001.868896 821.027222,1000.880127 
	C822.142578,1000.611572 823.374817,1000.407349 824.482056,1000.594849 
	C831.552368,1001.791809 838.602600,1003.106689 846.306091,1004.499634 
	C847.490356,1001.574219 849.068298,997.676270 850.860291,993.249634 
	C836.274902,986.573303 821.959961,984.480469 807.474182,991.689209 
	C798.532532,996.139038 794.613953,1006.040222 797.620667,1015.316895 
	C800.169006,1023.179138 806.812988,1026.318970 814.002258,1028.497314 
	C820.160828,1030.363281 826.572266,1031.528442 832.517212,1033.894653 
	C834.679993,1034.755371 837.278137,1038.371094 837.027527,1040.403076 
	C836.757751,1042.591309 833.680237,1045.437622 831.288696,1046.126953 
	C827.602539,1047.189331 823.310913,1047.392700 819.539429,1046.640381 
	C813.140808,1045.364136 806.947388,1043.059082 800.336609,1041.087646 
	C799.178345,1043.697998 797.562622,1046.806519 796.484863,1050.091675 
	C796.159302,1051.084351 797.325317,1052.566284 798.367188,1054.246948 
M541.856018,1002.472778 
	C538.789734,1015.478699 542.888550,1023.083557 555.471741,1027.604858 
	C557.646301,1028.386108 559.899719,1028.950562 562.122864,1029.593872 
	C567.033813,1031.015015 572.152161,1031.969238 576.769592,1034.041626 
	C578.838196,1034.970093 581.234192,1038.241821 581.062805,1040.243042 
	C580.883484,1042.336548 578.129089,1045.168213 575.910339,1045.908203 
	C572.411438,1047.075073 568.259766,1047.591675 564.670715,1046.899414 
	C557.930664,1045.599243 551.395264,1043.238892 544.304382,1041.183105 
	C542.876648,1044.310547 541.113770,1048.172119 539.145020,1052.484619 
	C553.955139,1060.539673 568.973816,1063.312134 584.770752,1057.115356 
	C593.553284,1053.670288 597.859741,1046.183594 597.538757,1036.612671 
	C597.289978,1029.196899 592.553345,1023.557922 583.397156,1020.592285 
	C577.113281,1018.557068 570.605713,1017.222351 564.266113,1015.345276 
	C560.729797,1014.298157 556.765625,1012.783264 556.935364,1008.382507 
	C557.113831,1003.758728 560.918152,1001.812988 565.045654,1000.846008 
	C566.162781,1000.584351 567.395264,1000.401306 568.505188,1000.590454 
	C575.575623,1001.795593 582.626526,1003.114990 590.258789,1004.501160 
	C591.457520,1001.525452 593.027649,997.627930 594.682007,993.521362 
	C584.023987,987.706116 573.147827,986.218445 561.663330,988.201721 
	C553.022400,989.693909 545.906372,993.265625 541.856018,1002.472778 
M182.702530,1001.351685 
	C193.118576,1001.351685 203.534622,1001.351685 213.914185,1001.351685 
	C213.914185,996.688110 213.914185,992.812500 213.914185,988.950317 
	C196.405991,988.950317 179.327774,988.950317 162.073120,988.950317 
	C162.073120,1012.415222 162.073120,1035.575562 162.073120,1058.817139 
	C167.247955,1058.817139 171.998062,1058.817139 177.436554,1058.817139 
	C177.436554,1050.171265 177.436554,1041.813477 177.436554,1033.000000 
	C188.704117,1033.000000 199.281708,1033.000000 209.970032,1033.000000 
	C209.970032,1028.768555 209.970032,1025.024536 209.970032,1020.633545 
	C198.989548,1020.633545 188.283157,1020.633545 177.610901,1020.633545 
	C177.610901,1013.890381 177.610901,1007.803589 177.610901,1001.351135 
	C179.167801,1001.351135 180.464981,1001.351135 182.702530,1001.351685 
M609.187500,1058.141968 
	C614.480896,1058.589600 619.774353,1059.037109 625.242920,1059.499634 
	C625.242920,1035.207520 625.242920,1011.990662 625.242920,988.884888 
	C619.696411,988.884888 614.476807,988.884888 608.963196,988.884888 
	C608.963196,1011.956421 608.963196,1034.587036 609.187500,1058.141968 
M349.278412,1001.514038 
	C349.278412,997.263977 349.278412,993.013916 349.278412,988.752686 
	C343.482300,988.752686 338.398224,988.752686 333.243225,988.752686 
	C333.243225,1012.259033 333.243225,1035.541748 333.243225,1058.711792 
	C338.788452,1058.711792 343.843842,1058.711792 349.278809,1058.711792 
	C349.278809,1039.692627 349.278809,1021.100586 349.278412,1001.514038 
M225.658539,1034.500000 
	C225.658539,1042.575806 225.658539,1050.651611 225.658539,1058.828857 
	C231.224731,1058.828857 235.973557,1058.828857 240.944305,1058.828857 
	C240.944305,1035.364746 240.944305,1012.201111 240.944305,988.940491 
	C235.787949,988.940491 231.035797,988.940491 225.658188,988.940491 
	C225.658188,1003.978149 225.658188,1018.739075 225.658539,1034.500000 
z"/>
<path fill="#01ADEE" opacity="1.000000" stroke="none" 
	d="
M640.840149,109.176468 
	C667.966370,127.785210 692.979004,148.391144 714.832886,172.522919 
	C754.896301,216.762268 780.442078,268.469330 793.189331,326.710968 
	C797.324646,345.605286 799.741577,364.699280 799.875793,383.920715 
	C800.188538,428.730255 787.886414,470.180756 765.009033,508.670563 
	C747.148743,538.719299 726.108826,566.431580 704.086792,593.465637 
	C696.112122,603.255127 688.232117,613.121765 680.270447,622.921936 
	C678.810303,624.719238 677.164307,626.365479 674.929321,628.823486 
	C672.135437,622.092590 669.533569,615.980469 667.051575,609.820007 
	C644.542297,553.950195 622.047363,498.074615 599.562317,442.195038 
	C588.688354,415.170959 577.834961,388.138519 566.995544,361.100525 
	C565.191406,356.600098 562.246521,353.272339 557.216675,353.117584 
	C552.905090,352.984894 549.304199,355.216614 548.003540,359.401794 
	C547.235535,361.872986 547.110352,365.110138 548.049500,367.462555 
	C569.220764,420.494202 590.584778,473.448883 611.902466,526.422058 
	C639.953369,596.126953 667.990967,665.837097 696.043030,735.541504 
	C718.839050,792.185791 741.648804,848.824463 764.447144,905.467773 
	C765.054443,906.976624 765.600464,908.510132 766.400879,910.630127 
	C760.016846,911.439697 754.053040,912.320740 748.061768,912.933777 
	C724.811707,915.312439 701.558228,917.660767 678.295715,919.913330 
	C659.812744,921.703247 641.307068,923.259827 622.826111,925.069153 
	C611.778992,926.150635 600.738708,927.362061 589.740784,928.850281 
	C586.234497,929.324829 585.535767,927.436829 584.615662,924.975342 
	C578.126465,907.613953 571.558716,890.281921 565.048889,872.928162 
	C550.756042,834.826782 536.475037,796.720947 522.203247,758.611572 
	C504.450439,711.207214 486.721619,663.793945 468.964417,616.391296 
	C447.257446,558.444702 425.535645,500.503632 403.811890,442.563324 
	C397.771912,426.453857 391.734924,410.343079 385.629913,394.258209 
	C383.266998,388.032623 379.610565,385.490662 374.215546,386.015625 
	C369.671997,386.457733 366.517609,390.081909 365.040619,396.375275 
	C360.059937,417.597870 355.056976,438.815308 350.042480,460.029968 
	C334.043579,527.716064 318.047180,595.402710 302.025574,663.083374 
	C295.406036,691.046570 288.777100,719.007935 281.948883,746.920288 
	C281.515717,748.690918 279.601746,750.861023 277.895660,751.448669 
	C214.418884,773.310913 150.885925,795.010010 87.354919,816.714661 
	C86.124557,817.135010 84.826469,817.356995 82.891846,817.837402 
	C84.389488,810.058105 85.738770,802.652710 87.247437,795.279907 
	C94.801903,758.361572 102.387024,721.449463 109.982620,684.539551 
	C118.241821,644.405090 126.571587,604.285034 134.783676,564.140930 
	C143.226440,522.869263 151.533249,481.569794 159.957748,440.294373 
	C166.864395,406.455688 173.895172,372.642303 180.801086,338.803467 
	C189.888748,294.274231 198.864700,249.722183 207.968246,205.196228 
	C218.194870,155.177246 228.794464,105.231453 238.501053,55.112309 
	C240.079346,46.962875 243.363220,43.589787 250.866974,41.408291 
	C273.923828,34.705162 297.203430,29.360542 320.972473,25.781181 
	C349.229309,21.526005 377.629669,20.826328 405.997894,22.194847 
	C438.995270,23.786684 471.348724,29.896097 502.919067,39.956131 
	C552.437439,55.735428 598.405945,78.515846 640.840149,109.176468 
M471.534149,278.039246 
	C484.476227,261.075348 489.325378,242.080841 486.101105,220.956818 
	C480.589386,184.846542 449.896423,157.977249 412.059052,158.192032 
	C390.939728,158.311920 372.583649,166.376389 358.269775,182.318604 
	C338.580994,204.247208 333.724792,229.581253 342.859650,257.270081 
	C353.567627,289.727356 388.051514,312.347870 425.176147,305.900848 
	C443.860474,302.656219 459.335083,293.666229 471.534149,278.039246 
z"/>
<path fill="#6E7176" opacity="1.000000" stroke="none" 
	d="
M783.880798,1008.000732 
	C783.880737,1025.120361 783.880737,1041.740112 783.880737,1058.645386 
	C776.447144,1059.540649 770.432495,1060.114990 765.236633,1052.870117 
	C756.740845,1041.024048 746.869995,1030.163696 737.557373,1018.905518 
	C737.290466,1018.582825 736.777893,1018.463440 735.705017,1017.886047 
	C735.705017,1031.733154 735.705017,1045.095093 735.705017,1058.790405 
	C730.069580,1058.790405 725.027283,1058.790405 719.715698,1058.790405 
	C719.715698,1035.504517 719.715698,1012.405579 719.717041,989.306152 
	C728.218567,986.778931 732.289856,987.961731 737.675232,994.570801 
	C746.592285,1005.513977 755.488220,1016.474365 764.419556,1027.405762 
	C765.134277,1028.280640 766.053650,1028.988525 767.627441,1030.488159 
	C767.627441,1016.129883 767.627441,1002.613586 767.627441,988.786987 
	C773.285095,988.786987 778.335999,988.786987 783.880859,988.786987 
	C783.880859,995.244995 783.880859,1001.372925 783.880798,1008.000732 
z"/>
<path fill="#6D7075" opacity="1.000000" stroke="none" 
	d="
M394.481323,990.617310 
	C395.329041,989.593628 396.176971,988.495483 397.006256,988.509338 
	C409.792023,988.723450 422.709290,988.034485 435.328491,989.647766 
	C455.256409,992.195374 465.473969,1006.518494 465.357910,1024.577271 
	C465.236725,1043.433105 451.314178,1057.646484 432.993927,1058.444824 
	C420.402100,1058.993652 407.767090,1058.550049 394.472839,1058.550049 
	C394.472839,1036.203369 394.472839,1013.631836 394.481323,990.617310 
M438.310333,1042.899536 
	C447.542877,1037.621582 449.840393,1029.077881 448.543671,1019.435242 
	C447.407013,1010.983215 442.436584,1004.825928 433.890076,1003.192383 
	C426.347900,1001.750793 418.551239,1001.640869 410.313934,1000.892700 
	C410.313934,1014.791199 410.313934,1027.564209 410.313934,1040.337158 
	C410.313934,1041.954834 410.313934,1043.572510 410.313934,1045.677002 
	C419.813324,1045.142700 428.971344,1047.327515 438.310333,1042.899536 
z"/>
<path fill="#6D7074" opacity="1.000000" stroke="none" 
	d="
M66.506851,1050.470215 
	C68.288139,1053.090210 69.838989,1055.427124 71.416023,1057.803345 
	C63.620167,1061.407715 55.113045,1059.304077 50.727612,1052.904541 
	C49.696815,1051.400269 48.297878,1050.047119 47.653408,1048.395996 
	C43.757492,1038.415039 35.871685,1038.439697 26.636097,1040.134521 
	C26.636097,1046.228638 26.636097,1052.445801 26.636097,1058.895386 
	C21.044317,1058.895386 16.105083,1058.895386 10.770061,1058.895386 
	C10.770061,1035.589600 10.770061,1012.393433 10.770061,988.454468 
	C15.301669,988.454468 19.890909,988.342346 24.472752,988.478699 
	C32.922897,988.730225 41.447231,988.516052 49.800365,989.588501 
	C68.635086,992.006775 77.780441,1013.839722 66.471741,1029.032227 
	C64.263153,1031.999390 60.906448,1034.112061 57.466709,1037.161987 
	C60.238346,1041.259766 63.257389,1045.723267 66.506851,1050.470215 
M38.237461,1001.308594 
	C34.318272,1001.308594 30.399086,1001.308594 26.586054,1001.308594 
	C26.586054,1010.131470 26.586054,1018.210938 26.586054,1026.686035 
	C32.171322,1026.686035 37.477669,1026.950439 42.746437,1026.618408 
	C49.175365,1026.213257 54.135548,1021.784119 54.677952,1016.584473 
	C55.451454,1009.169434 52.726616,1004.357361 46.471729,1002.559875 
	C44.109177,1001.880981 41.598454,1001.717712 38.237461,1001.308594 
z"/>
<path fill="#6D7075" opacity="1.000000" stroke="none" 
	d="
M310.398010,1059.133301 
	C307.717865,1057.700928 305.001617,1056.684448 303.339996,1054.758301 
	C296.966431,1047.369995 290.931274,1039.689819 285.034485,1032.443726 
	C272.574890,1037.827026 274.153381,1048.507324 274.649200,1058.828857 
	C269.141083,1058.828857 264.215942,1058.828857 258.869263,1058.828857 
	C258.869263,1035.609009 258.869263,1012.399658 258.869263,988.813171 
	C263.856842,988.813171 268.899780,988.813171 274.492737,988.813171 
	C274.492737,999.198975 274.492737,1009.433411 274.492737,1019.667786 
	C274.869110,1019.878357 275.245453,1020.088928 275.621826,1020.299500 
	C279.539917,1016.395691 283.520966,1012.552673 287.361176,1008.573669 
	C292.907013,1002.827454 298.231567,996.861511 303.920013,991.263123 
	C305.376709,989.829468 307.796387,988.839233 309.859467,988.665771 
	C314.425568,988.281982 319.046173,988.546387 324.055176,988.546387 
	C314.351013,999.058472 304.903046,1009.293030 295.001495,1020.018982 
	C304.953461,1032.698853 314.935150,1045.416504 325.699463,1059.131470 
	C319.975586,1059.131470 315.410919,1059.131470 310.398010,1059.133301 
z"/>
<path fill="#6E7176" opacity="1.000000" stroke="none" 
	d="
M504.013489,1029.561768 
	C500.400085,1029.561523 497.284058,1029.561523 493.881104,1029.561523 
	C493.881104,1035.268555 493.881104,1040.331909 493.881104,1046.010864 
	C506.453064,1046.010864 518.846191,1046.010864 531.570312,1046.010864 
	C531.570312,1050.514038 531.570312,1054.412964 531.570312,1058.724854 
	C513.643494,1058.724854 495.799377,1058.724854 477.699219,1058.724854 
	C477.699219,1035.373779 477.699219,1012.152039 477.699219,988.681030 
	C495.297913,988.681030 512.683228,988.681030 530.311523,988.681030 
	C530.311523,992.863220 530.311523,996.807373 530.311523,1001.411865 
	C518.373779,1001.411865 506.342255,1001.411865 493.939453,1001.411865 
	C493.939453,1006.930725 493.939453,1011.797546 493.939453,1017.129150 
	C504.725616,1017.129150 515.313416,1017.129150 526.227539,1017.129150 
	C526.227539,1021.317688 526.227539,1025.053589 526.227539,1029.562012 
	C519.011475,1029.562012 511.761169,1029.562012 504.013489,1029.561768 
z"/>
<path fill="#6D7075" opacity="1.000000" stroke="none" 
	d="
M689.454834,1040.676270 
	C689.459717,1034.561157 689.459717,1028.914185 689.459717,1022.845825 
	C694.437195,1022.845825 699.152649,1022.845825 704.517456,1022.845825 
	C704.517456,1031.803467 704.588562,1040.730469 704.422119,1049.652954 
	C704.402649,1050.696045 703.294678,1052.053711 702.316956,1052.693848 
	C687.049316,1062.690186 663.100464,1064.385132 647.916321,1049.587280 
	C637.876770,1039.803223 635.161560,1027.245728 638.845093,1013.726440 
	C642.601257,999.940552 652.188660,991.743286 665.808655,988.616028 
	C679.392395,985.497009 692.189087,987.447815 703.158936,996.863281 
	C703.903259,997.502258 704.486450,998.329041 704.977661,998.880859 
	C701.682373,1002.240967 698.482056,1005.504150 695.092712,1008.960205 
	C688.758362,1001.720581 680.073914,1000.083557 670.895020,1002.049255 
	C658.147217,1004.779175 651.731140,1016.390137 654.648254,1030.081909 
	C657.021118,1041.219116 669.723083,1048.756958 681.867554,1045.944946 
	C684.768494,1045.273071 689.011780,1045.996948 689.454834,1040.676270 
z"/>
<path fill="#6D7075" opacity="1.000000" stroke="none" 
	d="
M94.069916,1053.296631 
	C93.077530,1057.952637 90.634468,1059.698975 86.158569,1059.200928 
	C82.757675,1058.822632 79.280960,1059.125854 75.081757,1059.125854 
	C80.517776,1046.732056 85.585838,1035.093506 90.724358,1023.486145 
	C95.417206,1012.885620 100.085464,1002.271179 105.035881,991.791077 
	C105.738632,990.303284 107.925674,988.672119 109.511414,988.579834 
	C121.949425,987.856140 122.080025,987.910645 127.229790,999.284851 
	C135.633331,1017.845520 143.861313,1036.485718 152.142593,1055.101440 
	C152.592590,1056.113037 152.852142,1057.209351 153.473251,1059.094604 
	C147.989868,1059.094604 143.058243,1059.302979 138.172028,1058.924683 
	C137.155579,1058.845825 136.023361,1056.717041 135.426239,1055.326172 
	C130.405548,1043.632202 130.439316,1043.618042 117.842003,1043.614014 
	C113.345268,1043.612671 108.815643,1043.946533 104.360779,1043.513184 
	C99.637840,1043.053711 96.756332,1044.513794 95.677193,1049.251465 
	C95.386780,1050.526367 94.734772,1051.718994 94.069916,1053.296631 
M109.693077,1015.030396 
	C107.497322,1020.427734 105.301559,1025.825073 102.944679,1031.618408 
	C110.933273,1031.618408 118.058594,1031.618408 125.692589,1031.618408 
	C121.918945,1022.478516 118.259911,1013.616150 114.221619,1003.835266 
	C112.587975,1007.963989 111.323952,1011.158569 109.693077,1015.030396 
z"/>
<path fill="#6D7176" opacity="1.000000" stroke="none" 
	d="
M798.087646,1054.035645 
	C797.325317,1052.566284 796.159302,1051.084351 796.484863,1050.091675 
	C797.562622,1046.806519 799.178345,1043.697998 800.336609,1041.087646 
	C806.947388,1043.059082 813.140808,1045.364136 819.539429,1046.640381 
	C823.310913,1047.392700 827.602539,1047.189331 831.288696,1046.126953 
	C833.680237,1045.437622 836.757751,1042.591309 837.027527,1040.403076 
	C837.278137,1038.371094 834.679993,1034.755371 832.517212,1033.894653 
	C826.572266,1031.528442 820.160828,1030.363281 814.002258,1028.497314 
	C806.812988,1026.318970 800.169006,1023.179138 797.620667,1015.316895 
	C794.613953,1006.040222 798.532532,996.139038 807.474182,991.689209 
	C821.959961,984.480469 836.274902,986.573303 850.860291,993.249634 
	C849.068298,997.676270 847.490356,1001.574219 846.306091,1004.499634 
	C838.602600,1003.106689 831.552368,1001.791809 824.482056,1000.594849 
	C823.374817,1000.407349 822.142578,1000.611572 821.027222,1000.880127 
	C816.920105,1001.868896 813.104187,1003.705811 813.006836,1008.449463 
	C812.915161,1012.917542 816.867004,1014.328125 820.398743,1015.372070 
	C826.739319,1017.246094 833.240417,1018.599670 839.527893,1020.625427 
	C847.095764,1023.063660 852.925232,1027.490112 853.528625,1036.228394 
	C854.194397,1045.869507 850.062134,1053.044067 841.115967,1056.880859 
	C826.515259,1063.142700 812.272583,1060.746216 798.087646,1054.035645 
z"/>
<path fill="#6D7075" opacity="1.000000" stroke="none" 
	d="
M542.034180,1002.131104 
	C545.906372,993.265625 553.022400,989.693909 561.663330,988.201721 
	C573.147827,986.218445 584.023987,987.706116 594.682007,993.521362 
	C593.027649,997.627930 591.457520,1001.525452 590.258789,1004.501160 
	C582.626526,1003.114990 575.575623,1001.795593 568.505188,1000.590454 
	C567.395264,1000.401306 566.162781,1000.584351 565.045654,1000.846008 
	C560.918152,1001.812988 557.113831,1003.758728 556.935364,1008.382507 
	C556.765625,1012.783264 560.729797,1014.298157 564.266113,1015.345276 
	C570.605713,1017.222351 577.113281,1018.557068 583.397156,1020.592285 
	C592.553345,1023.557922 597.289978,1029.196899 597.538757,1036.612671 
	C597.859741,1046.183594 593.553284,1053.670288 584.770752,1057.115356 
	C568.973816,1063.312134 553.955139,1060.539673 539.145020,1052.484619 
	C541.113770,1048.172119 542.876648,1044.310547 544.304382,1041.183105 
	C551.395264,1043.238892 557.930664,1045.599243 564.670715,1046.899414 
	C568.259766,1047.591675 572.411438,1047.075073 575.910339,1045.908203 
	C578.129089,1045.168213 580.883484,1042.336548 581.062805,1040.243042 
	C581.234192,1038.241821 578.838196,1034.970093 576.769592,1034.041626 
	C572.152161,1031.969238 567.033813,1031.015015 562.122864,1029.593872 
	C559.899719,1028.950562 557.646301,1028.386108 555.471741,1027.604858 
	C542.888550,1023.083557 538.789734,1015.478699 542.034180,1002.131104 
z"/>
<path fill="#6C6F73" opacity="1.000000" stroke="none" 
	d="
M182.232330,1001.351440 
	C180.464981,1001.351135 179.167801,1001.351135 177.610901,1001.351135 
	C177.610901,1007.803589 177.610901,1013.890381 177.610901,1020.633545 
	C188.283157,1020.633545 198.989548,1020.633545 209.970032,1020.633545 
	C209.970032,1025.024536 209.970032,1028.768555 209.970032,1033.000000 
	C199.281708,1033.000000 188.704117,1033.000000 177.436554,1033.000000 
	C177.436554,1041.813477 177.436554,1050.171265 177.436554,1058.817139 
	C171.998062,1058.817139 167.247955,1058.817139 162.073120,1058.817139 
	C162.073120,1035.575562 162.073120,1012.415222 162.073120,988.950317 
	C179.327774,988.950317 196.405991,988.950317 213.914185,988.950317 
	C213.914185,992.812500 213.914185,996.688110 213.914185,1001.351685 
	C203.534622,1001.351685 193.118576,1001.351685 182.232330,1001.351440 
z"/>
<path fill="#6F7176" opacity="1.000000" stroke="none" 
	d="
M609.075317,1057.679810 
	C608.963196,1034.587036 608.963196,1011.956421 608.963196,988.884888 
	C614.476807,988.884888 619.696411,988.884888 625.242920,988.884888 
	C625.242920,1011.990662 625.242920,1035.207520 625.242920,1059.499634 
	C619.774353,1059.037109 614.480896,1058.589600 609.075317,1057.679810 
z"/>
<path fill="#6E7175" opacity="1.000000" stroke="none" 
	d="
M349.278625,1002.011230 
	C349.278809,1021.100586 349.278809,1039.692627 349.278809,1058.711792 
	C343.843842,1058.711792 338.788452,1058.711792 333.243225,1058.711792 
	C333.243225,1035.541748 333.243225,1012.259033 333.243225,988.752686 
	C338.398224,988.752686 343.482300,988.752686 349.278412,988.752686 
	C349.278412,993.013916 349.278412,997.263977 349.278625,1002.011230 
z"/>
<path fill="#6C6F73" opacity="1.000000" stroke="none" 
	d="
M225.658356,1034.000000 
	C225.658188,1018.739075 225.658188,1003.978149 225.658188,988.940491 
	C231.035797,988.940491 235.787949,988.940491 240.944305,988.940491 
	C240.944305,1012.201111 240.944305,1035.364746 240.944305,1058.828857 
	C235.973557,1058.828857 231.224731,1058.828857 225.658539,1058.828857 
	C225.658539,1050.651611 225.658539,1042.575806 225.658356,1034.000000 
z"/>
<path fill="#FDFFFF" opacity="1.000000" stroke="none" 
	d="
M471.321777,278.328461 
	C459.335083,293.666229 443.860474,302.656219 425.176147,305.900848 
	C388.051514,312.347870 353.567627,289.727356 342.859650,257.270081 
	C333.724792,229.581253 338.580994,204.247208 358.269775,182.318604 
	C372.583649,166.376389 390.939728,158.311920 412.059052,158.192032 
	C449.896423,157.977249 480.589386,184.846542 486.101105,220.956818 
	C489.325378,242.080841 484.476227,261.075348 471.321777,278.328461 
z"/>
<path fill="#F8F9FA" opacity="1.000000" stroke="none" 
	d="
M438.009491,1043.123901 
	C428.971344,1047.327515 419.813324,1045.142700 410.313934,1045.677002 
	C410.313934,1043.572510 410.313934,1041.954834 410.313934,1040.337158 
	C410.313934,1027.564209 410.313934,1014.791199 410.313934,1000.892700 
	C418.551239,1001.640869 426.347900,1001.750793 433.890076,1003.192383 
	C442.436584,1004.825928 447.407013,1010.983215 448.543671,1019.435242 
	C449.840393,1029.077881 447.542877,1037.621582 438.009491,1043.123901 
z"/>
<path fill="#F4F6F7" opacity="1.000000" stroke="none" 
	d="
M38.696369,1001.314026 
	C41.598454,1001.717712 44.109177,1001.880981 46.471729,1002.559875 
	C52.726616,1004.357361 55.451454,1009.169434 54.677952,1016.584473 
	C54.135548,1021.784119 49.175365,1026.213257 42.746437,1026.618408 
	C37.477669,1026.950439 32.171322,1026.686035 26.586054,1026.686035 
	C26.586054,1018.210938 26.586054,1010.131470 26.586054,1001.308594 
	C30.399086,1001.308594 34.318272,1001.308594 38.696369,1001.314026 
z"/>
<path fill="#ECF0F2" opacity="1.000000" stroke="none" 
	d="
M109.876495,1014.691772 
	C111.323952,1011.158569 112.587975,1007.963989 114.221619,1003.835266 
	C118.259911,1013.616150 121.918945,1022.478516 125.692589,1031.618408 
	C118.058594,1031.618408 110.933273,1031.618408 102.944679,1031.618408 
	C105.301559,1025.825073 107.497322,1020.427734 109.876495,1014.691772 
z"/>
</svg>